ISO-10303-21;
HEADER;
/*Generated by software containing ST-Developer
 * from STEP Tools, Inc. (www.steptools.com) 
 */
/*OPTION: using custom renumber hook */
/*description */
/*implementation_level */
FILE_DESCRIPTION(('STEP AP242 Edition 2','STEP AP242 Edition 2''CAx-IF Rec.Pracs.---Representation and Presentation of Product Manufa
cturing Information (PMI)---4.0---2014-10-13','STEP AP242 Edition 2''CAx-IF Rec.Pracs.---Representation and Presentation of Product Manufa
cturing Information (PMI)---4.0---2014-10-13''CAx-IF Rec.Pracs.---3D Tessellated Geometry---0.4---2014-09-14','STEP AP242 Edition 2''CAx-IF Rec.Pracs.---Representation and Presentation of Product Manufa
cturing Information (PMI)---4.0---2014-10-13''CAx-IF Rec.Pracs.---3D Tessellated Geometry---0.4---2014-09-14''2;1','STEP AP242 Edition 2''CAx-IF Rec.Pracs.---Representation and Presentation of Product Manufa
cturing Information (PMI)---4.0---2014-10-13''CAx-IF Rec.Pracs.---3D Tessellated Geometry---0.4---2014-09-14''2;1''CAx-IF Rec.Pracs.---User Defined Attributes---1.5---2016-08-15'),'2;1');
/*name */
/*time_stamp */
/*author */
/*organization */
/*preprocessor_version */
/*originating_system */
/*authorisation */
FILE_NAME('/vol/tmp/translate-13645866301618013333/Part Studio 3 - Part 8.step','2026-09-29T15:30:38',(''),(''),'ST-DEVELOPER v20','ONSHAPE BY PTC INC, 1.221','  ');
FILE_SCHEMA(('AP242_MANAGED_MODEL_BASED_3D_ENGINEERING_MIM_LF { 1 0 10303 442 3 1 4 }'));
ENDSEC;
DATA;
#10=SHAPE_REPRESENTATION_RELATIONSHIP('','',#319,#11);
#11=ADVANCED_BREP_SHAPE_REPRESENTATION('',(#317),#521);
#12=CIRCLE('',#323,0.004);
#13=CIRCLE('',#324,0.004);
#14=CIRCLE('',#327,0.004);
#15=CIRCLE('',#328,0.004);
#16=CIRCLE('',#331,0.004);
#17=CIRCLE('',#332,0.004);
#18=CIRCLE('',#338,0.001);
#19=CIRCLE('',#339,0.001);
#20=CIRCLE('',#341,0.004);
#21=CIRCLE('',#342,0.004);
#22=CIRCLE('',#345,0.001);
#23=CIRCLE('',#346,0.001);
#24=CYLINDRICAL_SURFACE('',#322,0.004);
#25=CYLINDRICAL_SURFACE('',#326,0.004);
#26=CYLINDRICAL_SURFACE('',#330,0.004);
#27=CYLINDRICAL_SURFACE('',#337,0.001);
#28=CYLINDRICAL_SURFACE('',#340,0.004);
#29=CYLINDRICAL_SURFACE('',#344,0.001);
#30=ORIENTED_EDGE('',*,*,#110,.T.);
#31=ORIENTED_EDGE('',*,*,#111,.F.);
#32=ORIENTED_EDGE('',*,*,#112,.F.);
#33=ORIENTED_EDGE('',*,*,#113,.T.);
#34=ORIENTED_EDGE('',*,*,#114,.T.);
#35=ORIENTED_EDGE('',*,*,#115,.F.);
#36=ORIENTED_EDGE('',*,*,#116,.F.);
#37=ORIENTED_EDGE('',*,*,#111,.T.);
#38=ORIENTED_EDGE('',*,*,#117,.F.);
#39=ORIENTED_EDGE('',*,*,#118,.F.);
#40=ORIENTED_EDGE('',*,*,#119,.T.);
#41=ORIENTED_EDGE('',*,*,#115,.T.);
#42=ORIENTED_EDGE('',*,*,#120,.T.);
#43=ORIENTED_EDGE('',*,*,#121,.F.);
#44=ORIENTED_EDGE('',*,*,#122,.F.);
#45=ORIENTED_EDGE('',*,*,#118,.T.);
#46=ORIENTED_EDGE('',*,*,#123,.F.);
#47=ORIENTED_EDGE('',*,*,#124,.F.);
#48=ORIENTED_EDGE('',*,*,#125,.T.);
#49=ORIENTED_EDGE('',*,*,#121,.T.);
#50=ORIENTED_EDGE('',*,*,#126,.T.);
#51=ORIENTED_EDGE('',*,*,#127,.F.);
#52=ORIENTED_EDGE('',*,*,#128,.F.);
#53=ORIENTED_EDGE('',*,*,#124,.T.);
#54=ORIENTED_EDGE('',*,*,#129,.T.);
#55=ORIENTED_EDGE('',*,*,#130,.F.);
#56=ORIENTED_EDGE('',*,*,#131,.F.);
#57=ORIENTED_EDGE('',*,*,#127,.T.);
#58=ORIENTED_EDGE('',*,*,#132,.F.);
#59=ORIENTED_EDGE('',*,*,#133,.F.);
#60=ORIENTED_EDGE('',*,*,#134,.T.);
#61=ORIENTED_EDGE('',*,*,#135,.T.);
#62=ORIENTED_EDGE('',*,*,#136,.T.);
#63=ORIENTED_EDGE('',*,*,#137,.F.);
#64=ORIENTED_EDGE('',*,*,#138,.F.);
#65=ORIENTED_EDGE('',*,*,#133,.T.);
#66=ORIENTED_EDGE('',*,*,#139,.T.);
#67=ORIENTED_EDGE('',*,*,#140,.F.);
#68=ORIENTED_EDGE('',*,*,#141,.F.);
#69=ORIENTED_EDGE('',*,*,#137,.T.);
#70=ORIENTED_EDGE('',*,*,#142,.T.);
#71=ORIENTED_EDGE('',*,*,#143,.F.);
#72=ORIENTED_EDGE('',*,*,#144,.T.);
#73=ORIENTED_EDGE('',*,*,#113,.F.);
#74=ORIENTED_EDGE('',*,*,#145,.F.);
#75=ORIENTED_EDGE('',*,*,#130,.T.);
#76=ORIENTED_EDGE('',*,*,#146,.F.);
#77=ORIENTED_EDGE('',*,*,#135,.F.);
#78=ORIENTED_EDGE('',*,*,#147,.T.);
#79=ORIENTED_EDGE('',*,*,#140,.T.);
#80=ORIENTED_EDGE('',*,*,#148,.T.);
#81=ORIENTED_EDGE('',*,*,#149,.F.);
#82=ORIENTED_EDGE('',*,*,#134,.F.);
#83=ORIENTED_EDGE('',*,*,#138,.T.);
#84=ORIENTED_EDGE('',*,*,#141,.T.);
#85=ORIENTED_EDGE('',*,*,#147,.F.);
#86=ORIENTED_EDGE('',*,*,#112,.T.);
#87=ORIENTED_EDGE('',*,*,#116,.T.);
#88=ORIENTED_EDGE('',*,*,#119,.F.);
#89=ORIENTED_EDGE('',*,*,#122,.T.);
#90=ORIENTED_EDGE('',*,*,#125,.F.);
#91=ORIENTED_EDGE('',*,*,#128,.T.);
#92=ORIENTED_EDGE('',*,*,#131,.T.);
#93=ORIENTED_EDGE('',*,*,#145,.T.);
#94=ORIENTED_EDGE('',*,*,#142,.F.);
#95=ORIENTED_EDGE('',*,*,#148,.F.);
#96=ORIENTED_EDGE('',*,*,#132,.T.);
#97=ORIENTED_EDGE('',*,*,#146,.T.);
#98=ORIENTED_EDGE('',*,*,#139,.F.);
#99=ORIENTED_EDGE('',*,*,#136,.F.);
#100=ORIENTED_EDGE('',*,*,#110,.F.);
#101=ORIENTED_EDGE('',*,*,#144,.F.);
#102=ORIENTED_EDGE('',*,*,#129,.F.);
#103=ORIENTED_EDGE('',*,*,#126,.F.);
#104=ORIENTED_EDGE('',*,*,#123,.T.);
#105=ORIENTED_EDGE('',*,*,#120,.F.);
#106=ORIENTED_EDGE('',*,*,#117,.T.);
#107=ORIENTED_EDGE('',*,*,#114,.F.);
#108=ORIENTED_EDGE('',*,*,#143,.T.);
#109=ORIENTED_EDGE('',*,*,#149,.T.);
#110=EDGE_CURVE('',#150,#151,#178,.T.);
#111=EDGE_CURVE('',#152,#151,#179,.T.);
#112=EDGE_CURVE('',#153,#152,#180,.T.);
#113=EDGE_CURVE('',#153,#150,#181,.T.);
#114=EDGE_CURVE('',#151,#154,#12,.T.);
#115=EDGE_CURVE('',#155,#154,#182,.T.);
#116=EDGE_CURVE('',#152,#155,#13,.T.);
#117=EDGE_CURVE('',#156,#154,#183,.T.);
#118=EDGE_CURVE('',#157,#156,#184,.T.);
#119=EDGE_CURVE('',#157,#155,#185,.T.);
#120=EDGE_CURVE('',#156,#158,#14,.T.);
#121=EDGE_CURVE('',#159,#158,#186,.T.);
#122=EDGE_CURVE('',#157,#159,#15,.T.);
#123=EDGE_CURVE('',#160,#158,#187,.T.);
#124=EDGE_CURVE('',#161,#160,#188,.T.);
#125=EDGE_CURVE('',#161,#159,#189,.T.);
#126=EDGE_CURVE('',#160,#162,#16,.T.);
#127=EDGE_CURVE('',#163,#162,#190,.T.);
#128=EDGE_CURVE('',#161,#163,#17,.T.);
#129=EDGE_CURVE('',#162,#164,#191,.T.);
#130=EDGE_CURVE('',#165,#164,#192,.T.);
#131=EDGE_CURVE('',#163,#165,#193,.T.);
#132=EDGE_CURVE('',#166,#167,#194,.T.);
#133=EDGE_CURVE('',#168,#166,#195,.T.);
#134=EDGE_CURVE('',#168,#169,#196,.T.);
#135=EDGE_CURVE('',#169,#167,#197,.T.);
#136=EDGE_CURVE('',#166,#170,#198,.T.);
#137=EDGE_CURVE('',#171,#170,#199,.T.);
#138=EDGE_CURVE('',#168,#171,#200,.T.);
#139=EDGE_CURVE('',#170,#172,#201,.T.);
#140=EDGE_CURVE('',#173,#172,#202,.T.);
#141=EDGE_CURVE('',#171,#173,#203,.T.);
#142=EDGE_CURVE('',#174,#174,#18,.T.);
#143=EDGE_CURVE('',#175,#175,#19,.T.);
#144=EDGE_CURVE('',#164,#150,#20,.T.);
#145=EDGE_CURVE('',#165,#153,#21,.T.);
#146=EDGE_CURVE('',#167,#172,#204,.T.);
#147=EDGE_CURVE('',#169,#173,#205,.T.);
#148=EDGE_CURVE('',#176,#176,#22,.T.);
#149=EDGE_CURVE('',#177,#177,#23,.T.);
#150=VERTEX_POINT('',#438);
#151=VERTEX_POINT('',#439);
#152=VERTEX_POINT('',#441);
#153=VERTEX_POINT('',#443);
#154=VERTEX_POINT('',#447);
#155=VERTEX_POINT('',#449);
#156=VERTEX_POINT('',#453);
#157=VERTEX_POINT('',#455);
#158=VERTEX_POINT('',#459);
#159=VERTEX_POINT('',#461);
#160=VERTEX_POINT('',#465);
#161=VERTEX_POINT('',#467);
#162=VERTEX_POINT('',#471);
#163=VERTEX_POINT('',#473);
#164=VERTEX_POINT('',#477);
#165=VERTEX_POINT('',#479);
#166=VERTEX_POINT('',#483);
#167=VERTEX_POINT('',#484);
#168=VERTEX_POINT('',#486);
#169=VERTEX_POINT('',#488);
#170=VERTEX_POINT('',#492);
#171=VERTEX_POINT('',#494);
#172=VERTEX_POINT('',#498);
#173=VERTEX_POINT('',#500);
#174=VERTEX_POINT('',#504);
#175=VERTEX_POINT('',#506);
#176=VERTEX_POINT('',#515);
#177=VERTEX_POINT('',#517);
#178=LINE('',#437,#206);
#179=LINE('',#440,#207);
#180=LINE('',#442,#208);
#181=LINE('',#444,#209);
#182=LINE('',#448,#210);
#183=LINE('',#452,#211);
#184=LINE('',#454,#212);
#185=LINE('',#456,#213);
#186=LINE('',#460,#214);
#187=LINE('',#464,#215);
#188=LINE('',#466,#216);
#189=LINE('',#468,#217);
#190=LINE('',#472,#218);
#191=LINE('',#476,#219);
#192=LINE('',#478,#220);
#193=LINE('',#480,#221);
#194=LINE('',#482,#222);
#195=LINE('',#485,#223);
#196=LINE('',#487,#224);
#197=LINE('',#489,#225);
#198=LINE('',#491,#226);
#199=LINE('',#493,#227);
#200=LINE('',#495,#228);
#201=LINE('',#497,#229);
#202=LINE('',#499,#230);
#203=LINE('',#501,#231);
#204=LINE('',#511,#232);
#205=LINE('',#512,#233);
#206=VECTOR('',#353,1.);
#207=VECTOR('',#354,1.);
#208=VECTOR('',#355,1.);
#209=VECTOR('',#356,1.);
#210=VECTOR('',#361,1.);
#211=VECTOR('',#366,1.);
#212=VECTOR('',#367,1.);
#213=VECTOR('',#368,1.);
#214=VECTOR('',#373,1.);
#215=VECTOR('',#378,1.);
#216=VECTOR('',#379,1.);
#217=VECTOR('',#380,1.);
#218=VECTOR('',#385,1.);
#219=VECTOR('',#390,1.);
#220=VECTOR('',#391,1.);
#221=VECTOR('',#392,1.);
#222=VECTOR('',#395,1.);
#223=VECTOR('',#396,1.);
#224=VECTOR('',#397,1.);
#225=VECTOR('',#398,1.);
#226=VECTOR('',#401,1.);
#227=VECTOR('',#402,1.);
#228=VECTOR('',#403,1.);
#229=VECTOR('',#406,1.);
#230=VECTOR('',#407,1.);
#231=VECTOR('',#408,1.);
#232=VECTOR('',#423,1.);
#233=VECTOR('',#424,1.);
#234=EDGE_LOOP('',(#30,#31,#32,#33));
#235=EDGE_LOOP('',(#34,#35,#36,#37));
#236=EDGE_LOOP('',(#38,#39,#40,#41));
#237=EDGE_LOOP('',(#42,#43,#44,#45));
#238=EDGE_LOOP('',(#46,#47,#48,#49));
#239=EDGE_LOOP('',(#50,#51,#52,#53));
#240=EDGE_LOOP('',(#54,#55,#56,#57));
#241=EDGE_LOOP('',(#58,#59,#60,#61));
#242=EDGE_LOOP('',(#62,#63,#64,#65));
#243=EDGE_LOOP('',(#66,#67,#68,#69));
#244=EDGE_LOOP('',(#70));
#245=EDGE_LOOP('',(#71));
#246=EDGE_LOOP('',(#72,#73,#74,#75));
#247=EDGE_LOOP('',(#76,#77,#78,#79));
#248=EDGE_LOOP('',(#80));
#249=EDGE_LOOP('',(#81));
#250=EDGE_LOOP('',(#82,#83,#84,#85));
#251=EDGE_LOOP('',(#86,#87,#88,#89,#90,#91,#92,#93));
#252=EDGE_LOOP('',(#94));
#253=EDGE_LOOP('',(#95));
#254=EDGE_LOOP('',(#96,#97,#98,#99));
#255=EDGE_LOOP('',(#100,#101,#102,#103,#104,#105,#106,#107));
#256=EDGE_LOOP('',(#108));
#257=EDGE_LOOP('',(#109));
#258=FACE_BOUND('',#234,.T.);
#259=FACE_BOUND('',#235,.T.);
#260=FACE_BOUND('',#236,.T.);
#261=FACE_BOUND('',#237,.T.);
#262=FACE_BOUND('',#238,.T.);
#263=FACE_BOUND('',#239,.T.);
#264=FACE_BOUND('',#240,.T.);
#265=FACE_BOUND('',#241,.T.);
#266=FACE_BOUND('',#242,.T.);
#267=FACE_BOUND('',#243,.T.);
#268=FACE_BOUND('',#244,.T.);
#269=FACE_BOUND('',#245,.T.);
#270=FACE_BOUND('',#246,.T.);
#271=FACE_BOUND('',#247,.T.);
#272=FACE_BOUND('',#248,.T.);
#273=FACE_BOUND('',#249,.T.);
#274=FACE_BOUND('',#250,.T.);
#275=FACE_BOUND('',#251,.T.);
#276=FACE_BOUND('',#252,.T.);
#277=FACE_BOUND('',#253,.T.);
#278=FACE_BOUND('',#254,.T.);
#279=FACE_BOUND('',#255,.T.);
#280=FACE_BOUND('',#256,.T.);
#281=FACE_BOUND('',#257,.T.);
#282=PLANE('',#321);
#283=PLANE('',#325);
#284=PLANE('',#329);
#285=PLANE('',#333);
#286=PLANE('',#334);
#287=PLANE('',#335);
#288=PLANE('',#336);
#289=PLANE('',#343);
#290=PLANE('',#347);
#291=PLANE('',#348);
#292=ADVANCED_FACE('',(#258),#282,.F.);
#293=ADVANCED_FACE('',(#259),#24,.T.);
#294=ADVANCED_FACE('',(#260),#283,.T.);
#295=ADVANCED_FACE('',(#261),#25,.T.);
#296=ADVANCED_FACE('',(#262),#284,.T.);
#297=ADVANCED_FACE('',(#263),#26,.T.);
#298=ADVANCED_FACE('',(#264),#285,.F.);
#299=ADVANCED_FACE('',(#265),#286,.T.);
#300=ADVANCED_FACE('',(#266),#287,.F.);
#301=ADVANCED_FACE('',(#267),#288,.F.);
#302=ADVANCED_FACE('',(#268,#269),#27,.F.);
#303=ADVANCED_FACE('',(#270),#28,.T.);
#304=ADVANCED_FACE('',(#271),#289,.T.);
#305=ADVANCED_FACE('',(#272,#273),#29,.F.);
#306=ADVANCED_FACE('',(#274,#275,#276,#277),#290,.T.);
#307=ADVANCED_FACE('',(#278,#279,#280,#281),#291,.F.);
#308=CLOSED_SHELL('',(#292,#293,#294,#295,#296,#297,#298,#299,#300,#301,#302,#303,#304,#305,#306,#307));
#309=STYLED_ITEM('',(#310),#317);
#310=PRESENTATION_STYLE_ASSIGNMENT((#311));
#311=SURFACE_STYLE_USAGE(.BOTH.,#312);
#312=SURFACE_SIDE_STYLE('',(#313));
#313=SURFACE_STYLE_FILL_AREA(#314);
#314=FILL_AREA_STYLE('',(#315));
#315=FILL_AREA_STYLE_COLOUR('',#316);
#316=COLOUR_RGB('',0.647058823529412,0.647058823529412,0.647058823529412);
#317=MANIFOLD_SOLID_BREP('Part 8',#308);
#318=SHAPE_DEFINITION_REPRESENTATION(#526,#319);
#319=SHAPE_REPRESENTATION('Part 8',(#320),#521);
#320=AXIS2_PLACEMENT_3D('',#435,#349,#350);
#321=AXIS2_PLACEMENT_3D('',#436,#351,#352);
#322=AXIS2_PLACEMENT_3D('',#445,#357,#358);
#323=AXIS2_PLACEMENT_3D('',#446,#359,#360);
#324=AXIS2_PLACEMENT_3D('',#450,#362,#363);
#325=AXIS2_PLACEMENT_3D('',#451,#364,#365);
#326=AXIS2_PLACEMENT_3D('',#457,#369,#370);
#327=AXIS2_PLACEMENT_3D('',#458,#371,#372);
#328=AXIS2_PLACEMENT_3D('',#462,#374,#375);
#329=AXIS2_PLACEMENT_3D('',#463,#376,#377);
#330=AXIS2_PLACEMENT_3D('',#469,#381,#382);
#331=AXIS2_PLACEMENT_3D('',#470,#383,#384);
#332=AXIS2_PLACEMENT_3D('',#474,#386,#387);
#333=AXIS2_PLACEMENT_3D('',#475,#388,#389);
#334=AXIS2_PLACEMENT_3D('',#481,#393,#394);
#335=AXIS2_PLACEMENT_3D('',#490,#399,#400);
#336=AXIS2_PLACEMENT_3D('',#496,#404,#405);
#337=AXIS2_PLACEMENT_3D('',#502,#409,#410);
#338=AXIS2_PLACEMENT_3D('',#503,#411,#412);
#339=AXIS2_PLACEMENT_3D('',#505,#413,#414);
#340=AXIS2_PLACEMENT_3D('',#507,#415,#416);
#341=AXIS2_PLACEMENT_3D('',#508,#417,#418);
#342=AXIS2_PLACEMENT_3D('',#509,#419,#420);
#343=AXIS2_PLACEMENT_3D('',#510,#421,#422);
#344=AXIS2_PLACEMENT_3D('',#513,#425,#426);
#345=AXIS2_PLACEMENT_3D('',#514,#427,#428);
#346=AXIS2_PLACEMENT_3D('',#516,#429,#430);
#347=AXIS2_PLACEMENT_3D('',#518,#431,#432);
#348=AXIS2_PLACEMENT_3D('',#519,#433,#434);
#349=DIRECTION('',(0.,0.,1.));
#350=DIRECTION('',(1.,0.,0.));
#351=DIRECTION('',(0.,1.,0.));
#352=DIRECTION('',(0.,0.,1.));
#353=DIRECTION('',(1.,0.,0.));
#354=DIRECTION('',(0.,0.,-1.));
#355=DIRECTION('',(1.,0.,0.));
#356=DIRECTION('',(0.,0.,-1.));
#357=DIRECTION('',(0.,0.,-1.));
#358=DIRECTION('',(-1.,0.,0.));
#359=DIRECTION('',(0.,0.,1.));
#360=DIRECTION('',(0.,-1.,0.));
#361=DIRECTION('',(0.,0.,-1.));
#362=DIRECTION('',(0.,0.,1.));
#363=DIRECTION('',(0.,-1.,0.));
#364=DIRECTION('',(1.,1.0842021724855E-16,0.));
#365=DIRECTION('',(-1.0842021724855E-16,1.,0.));
#366=DIRECTION('',(1.0842021724855E-16,-1.,0.));
#367=DIRECTION('',(0.,0.,-1.));
#368=DIRECTION('',(1.0842021724855E-16,-1.,0.));
#369=DIRECTION('',(0.,0.,-1.));
#370=DIRECTION('',(-1.,0.,0.));
#371=DIRECTION('',(0.,0.,1.));
#372=DIRECTION('',(1.,0.,0.));
#373=DIRECTION('',(0.,0.,-1.));
#374=DIRECTION('',(0.,0.,1.));
#375=DIRECTION('',(1.,0.,0.));
#376=DIRECTION('',(0.,1.,0.));
#377=DIRECTION('',(0.,0.,1.));
#378=DIRECTION('',(1.,0.,0.));
#379=DIRECTION('',(0.,0.,-1.));
#380=DIRECTION('',(1.,0.,0.));
#381=DIRECTION('',(0.,0.,-1.));
#382=DIRECTION('',(-1.,0.,0.));
#383=DIRECTION('',(0.,0.,1.));
#384=DIRECTION('',(0.,1.,0.));
#385=DIRECTION('',(0.,0.,-1.));
#386=DIRECTION('',(0.,0.,1.));
#387=DIRECTION('',(0.,1.,0.));
#388=DIRECTION('',(1.,0.,0.));
#389=DIRECTION('',(0.,0.,-1.));
#390=DIRECTION('',(0.,-1.,0.));
#391=DIRECTION('',(0.,0.,-1.));
#392=DIRECTION('',(0.,-1.,0.));
#393=DIRECTION('',(0.,1.,0.));
#394=DIRECTION('',(0.,0.,1.));
#395=DIRECTION('',(1.,0.,0.));
#396=DIRECTION('',(0.,0.,-1.));
#397=DIRECTION('',(1.,0.,0.));
#398=DIRECTION('',(0.,0.,-1.));
#399=DIRECTION('',(-1.,0.,0.));
#400=DIRECTION('',(0.,0.,1.));
#401=DIRECTION('',(0.,1.,0.));
#402=DIRECTION('',(0.,0.,-1.));
#403=DIRECTION('',(0.,1.,0.));
#404=DIRECTION('',(0.,1.,0.));
#405=DIRECTION('',(0.,0.,1.));
#406=DIRECTION('',(1.,0.,0.));
#407=DIRECTION('',(0.,0.,-1.));
#408=DIRECTION('',(1.,0.,0.));
#409=DIRECTION('',(0.,0.,-1.));
#410=DIRECTION('',(-1.,0.,0.));
#411=DIRECTION('',(0.,0.,1.));
#412=DIRECTION('',(0.,1.,0.));
#413=DIRECTION('',(0.,0.,1.));
#414=DIRECTION('',(0.,1.,0.));
#415=DIRECTION('',(0.,0.,-1.));
#416=DIRECTION('',(-1.,0.,0.));
#417=DIRECTION('',(0.,0.,1.));
#418=DIRECTION('',(-1.,0.,0.));
#419=DIRECTION('',(0.,0.,1.));
#420=DIRECTION('',(-1.,0.,0.));
#421=DIRECTION('',(-1.,0.,0.));
#422=DIRECTION('',(0.,0.,1.));
#423=DIRECTION('',(0.,1.,0.));
#424=DIRECTION('',(0.,1.,0.));
#425=DIRECTION('',(0.,0.,-1.));
#426=DIRECTION('',(-1.,0.,0.));
#427=DIRECTION('',(0.,0.,1.));
#428=DIRECTION('',(1.,0.,0.));
#429=DIRECTION('',(0.,0.,1.));
#430=DIRECTION('',(1.,0.,0.));
#431=DIRECTION('',(0.,0.,1.));
#432=DIRECTION('',(1.,0.,0.));
#433=DIRECTION('',(0.,0.,1.));
#434=DIRECTION('',(1.,0.,0.));
#435=CARTESIAN_POINT('',(0.,0.,0.));
#436=CARTESIAN_POINT('',(-0.0372709147458331,-0.0602957412046478,0.0514949940732757));
#437=CARTESIAN_POINT('',(-0.0372709147458331,-0.0602957412046478,0.0494949940732757));
#438=CARTESIAN_POINT('',(-0.0862709147458331,-0.0602957412046478,0.0494949940732757));
#439=CARTESIAN_POINT('',(0.0117290852541669,-0.0602957412046478,0.0494949940732757));
#440=CARTESIAN_POINT('',(0.0117290852541669,-0.0602957412046478,0.0514949940732757));
#441=CARTESIAN_POINT('',(0.0117290852541669,-0.0602957412046478,0.0514949940732757));
#442=CARTESIAN_POINT('',(-0.0372709147458331,-0.0602957412046478,0.0514949940732757));
#443=CARTESIAN_POINT('',(-0.0862709147458331,-0.0602957412046478,0.0514949940732757));
#444=CARTESIAN_POINT('',(-0.0862709147458331,-0.0602957412046478,0.0514949940732757));
#445=CARTESIAN_POINT('',(0.0117290852541669,-0.0562957412046478,0.0514949940732757));
#446=CARTESIAN_POINT('',(0.0117290852541669,-0.0562957412046478,0.0494949940732757));
#447=CARTESIAN_POINT('',(0.0157290852541669,-0.0562957412046478,0.0494949940732757));
#448=CARTESIAN_POINT('',(0.0157290852541669,-0.0562957412046478,0.0514949940732757));
#449=CARTESIAN_POINT('',(0.0157290852541669,-0.0562957412046478,0.0514949940732757));
#450=CARTESIAN_POINT('',(0.0117290852541669,-0.0562957412046478,0.0514949940732757));
#451=CARTESIAN_POINT('',(0.0157290852541669,-0.0242957412046478,0.0514949940732757));
#452=CARTESIAN_POINT('',(0.0157290852541669,-0.0242957412046478,0.0494949940732757));
#453=CARTESIAN_POINT('',(0.0157290852541669,0.00770425879535218,0.0494949940732757));
#454=CARTESIAN_POINT('',(0.0157290852541669,0.00770425879535218,0.0514949940732757));
#455=CARTESIAN_POINT('',(0.0157290852541669,0.00770425879535218,0.0514949940732757));
#456=CARTESIAN_POINT('',(0.0157290852541669,-0.0242957412046478,0.0514949940732757));
#457=CARTESIAN_POINT('',(0.0117290852541669,0.00770425879535218,0.0514949940732757));
#458=CARTESIAN_POINT('',(0.0117290852541669,0.00770425879535218,0.0494949940732757));
#459=CARTESIAN_POINT('',(0.0117290852541669,0.0117042587953522,0.0494949940732757));
#460=CARTESIAN_POINT('',(0.0117290852541669,0.0117042587953522,0.0514949940732757));
#461=CARTESIAN_POINT('',(0.0117290852541669,0.0117042587953522,0.0514949940732757));
#462=CARTESIAN_POINT('',(0.0117290852541669,0.00770425879535218,0.0514949940732757));
#463=CARTESIAN_POINT('',(-0.0372709147458331,0.0117042587953522,0.0514949940732757));
#464=CARTESIAN_POINT('',(-0.0372709147458331,0.0117042587953522,0.0494949940732757));
#465=CARTESIAN_POINT('',(-0.0862709147458331,0.0117042587953522,0.0494949940732757));
#466=CARTESIAN_POINT('',(-0.0862709147458331,0.0117042587953522,0.0514949940732757));
#467=CARTESIAN_POINT('',(-0.0862709147458331,0.0117042587953522,0.0514949940732757));
#468=CARTESIAN_POINT('',(-0.0372709147458331,0.0117042587953522,0.0514949940732757));
#469=CARTESIAN_POINT('',(-0.0862709147458331,0.00770425879535218,0.0514949940732757));
#470=CARTESIAN_POINT('',(-0.0862709147458331,0.00770425879535218,0.0494949940732757));
#471=CARTESIAN_POINT('',(-0.0902709147458331,0.00770425879535218,0.0494949940732757));
#472=CARTESIAN_POINT('',(-0.0902709147458331,0.00770425879535218,0.0514949940732757));
#473=CARTESIAN_POINT('',(-0.0902709147458331,0.00770425879535218,0.0514949940732757));
#474=CARTESIAN_POINT('',(-0.0862709147458331,0.00770425879535218,0.0514949940732757));
#475=CARTESIAN_POINT('',(-0.0902709147458331,-0.0242957412046478,0.0514949940732757));
#476=CARTESIAN_POINT('',(-0.0902709147458331,-0.0242957412046478,0.0494949940732757));
#477=CARTESIAN_POINT('',(-0.0902709147458331,-0.0562957412046478,0.0494949940732757));
#478=CARTESIAN_POINT('',(-0.0902709147458331,-0.0562957412046478,0.0514949940732757));
#479=CARTESIAN_POINT('',(-0.0902709147458331,-0.0562957412046478,0.0514949940732757));
#480=CARTESIAN_POINT('',(-0.0902709147458331,-0.0242957412046478,0.0514949940732757));
#481=CARTESIAN_POINT('',(-0.0378846749663353,-0.0404020138084888,0.0514949940732757));
#482=CARTESIAN_POINT('',(-0.0378846749663353,-0.0404020138084888,0.0494949940732757));
#483=CARTESIAN_POINT('',(-0.0757693499326706,-0.0404020138084888,0.0494949940732757));
#484=CARTESIAN_POINT('',(0.,-0.0404020138084888,0.0494949940732757));
#485=CARTESIAN_POINT('',(-0.0757693499326706,-0.0404020138084888,0.0514949940732757));
#486=CARTESIAN_POINT('',(-0.0757693499326706,-0.0404020138084888,0.0514949940732757));
#487=CARTESIAN_POINT('',(-0.0378846749663353,-0.0404020138084888,0.0514949940732757));
#488=CARTESIAN_POINT('',(0.,-0.0404020138084888,0.0514949940732757));
#489=CARTESIAN_POINT('',(0.,-0.0404020138084888,0.0514949940732757));
#490=CARTESIAN_POINT('',(-0.0757693499326706,-0.030327657237649,0.0514949940732757));
#491=CARTESIAN_POINT('',(-0.0757693499326706,-0.030327657237649,0.0494949940732757));
#492=CARTESIAN_POINT('',(-0.0757693499326706,-0.0202533006668091,0.0494949940732757));
#493=CARTESIAN_POINT('',(-0.0757693499326706,-0.0202533006668091,0.0514949940732757));
#494=CARTESIAN_POINT('',(-0.0757693499326706,-0.0202533006668091,0.0514949940732757));
#495=CARTESIAN_POINT('',(-0.0757693499326706,-0.030327657237649,0.0514949940732757));
#496=CARTESIAN_POINT('',(-0.0378846749663353,-0.0202533006668091,0.0514949940732757));
#497=CARTESIAN_POINT('',(-0.0378846749663353,-0.0202533006668091,0.0494949940732757));
#498=CARTESIAN_POINT('',(0.,-0.0202533006668091,0.0494949940732757));
#499=CARTESIAN_POINT('',(0.,-0.0202533006668091,0.0514949940732757));
#500=CARTESIAN_POINT('',(0.,-0.0202533006668091,0.0514949940732757));
#501=CARTESIAN_POINT('',(-0.0378846749663353,-0.0202533006668091,0.0514949940732757));
#502=CARTESIAN_POINT('',(-0.0374738982394338,-0.0592190544234992,0.0514949940732757));
#503=CARTESIAN_POINT('',(-0.0374738982394338,-0.0592190544234992,0.0514949940732757));
#504=CARTESIAN_POINT('',(-0.0374738982394338,-0.0582190544234992,0.0514949940732757));
#505=CARTESIAN_POINT('',(-0.0374738982394338,-0.0592190544234992,0.0494949940732757));
#506=CARTESIAN_POINT('',(-0.0374738982394338,-0.0582190544234992,0.0494949940732757));
#507=CARTESIAN_POINT('',(-0.0862709147458331,-0.0562957412046478,0.0514949940732757));
#508=CARTESIAN_POINT('',(-0.0862709147458331,-0.0562957412046478,0.0494949940732757));
#509=CARTESIAN_POINT('',(-0.0862709147458331,-0.0562957412046478,0.0514949940732757));
#510=CARTESIAN_POINT('',(0.,-0.030327657237649,0.0514949940732757));
#511=CARTESIAN_POINT('',(0.,-0.030327657237649,0.0494949940732757));
#512=CARTESIAN_POINT('',(0.,-0.030327657237649,0.0514949940732757));
#513=CARTESIAN_POINT('',(-0.0374738982394338,0.010609372701247,0.0514949940732757));
#514=CARTESIAN_POINT('',(-0.0374738982394338,0.010609372701247,0.0514949940732757));
#515=CARTESIAN_POINT('',(-0.0364738982394338,0.010609372701247,0.0514949940732757));
#516=CARTESIAN_POINT('',(-0.0374738982394338,0.010609372701247,0.0494949940732757));
#517=CARTESIAN_POINT('',(-0.0364738982394338,0.010609372701247,0.0494949940732757));
#518=CARTESIAN_POINT('',(-0.0372709147458331,-0.0242957412046478,0.0514949940732757));
#519=CARTESIAN_POINT('',(-0.0372709147458331,-0.0242957412046478,0.0494949940732757));
#520=MECHANICAL_DESIGN_GEOMETRIC_PRESENTATION_REPRESENTATION('',(#309),#521);
#521=(
GEOMETRIC_REPRESENTATION_CONTEXT(3)
GLOBAL_UNCERTAINTY_ASSIGNED_CONTEXT((#522))
GLOBAL_UNIT_ASSIGNED_CONTEXT((#525,#524,#523))
REPRESENTATION_CONTEXT('Part 8','TOP_LEVEL_ASSEMBLY_PART')
);
#522=UNCERTAINTY_MEASURE_WITH_UNIT(LENGTH_MEASURE(1.E-08),#525,'DISTANCE_ACCURACY_VALUE','Maximum Tolerance applied to model');
#523=(
NAMED_UNIT(*)
SI_UNIT($,.STERADIAN.)
SOLID_ANGLE_UNIT()
);
#524=(
NAMED_UNIT(*)
PLANE_ANGLE_UNIT()
SI_UNIT($,.RADIAN.)
);
#525=(
LENGTH_UNIT()
NAMED_UNIT(*)
SI_UNIT($,.METRE.)
);
#526=PRODUCT_DEFINITION_SHAPE('','',#527);
#527=PRODUCT_DEFINITION('','',#529,#528);
#528=PRODUCT_DEFINITION_CONTEXT('',#535,'design');
#529=PRODUCT_DEFINITION_FORMATION_WITH_SPECIFIED_SOURCE('','',#531,.NOT_KNOWN.);
#530=PRODUCT_RELATED_PRODUCT_CATEGORY('','',(#531));
#531=PRODUCT('Part 8','Part 8','Part 8',(#533));
#532=PRODUCT_CATEGORY('','');
#533=PRODUCT_CONTEXT('',#535,'mechanical');
#534=APPLICATION_PROTOCOL_DEFINITION('international standard','ap242_managed_model_based_3d_engineering',2020,#535);
#535=APPLICATION_CONTEXT('managed model based 3d engineering');
ENDSEC;
END-ISO-10303-21;
